<svg xmlns="http://www.w3.org/2000/svg" width="920" height="683" viewBox="0 0 920 683">
  <style>
    text { font-family: Consolas, "Courier New", monospace; font-size: 14px; dominant-baseline: text-before-edge; white-space: pre; }
  </style>
  <rect width="920" height="683" fill="#000000" />
  <g transform="translate(10, 10)">
    <text x="0" y="2" fill="#afafaf" textLength="405" lengthAdjust="spacingAndGlyphs">... first 6 lines hidden (Ctrl+O to show) ...</text>
    <text x="0" y="19" fill="#333333" textLength="9" lengthAdjust="spacingAndGlyphs">│</text>
    <rect x="18" y="17" width="18" height="17" fill="#5f0000" />
    <text x="18" y="19" fill="#afafaf" textLength="18" lengthAdjust="spacingAndGlyphs">10</text>
    <rect x="36" y="17" width="9" height="17" fill="#5f0000" />
    <rect x="45" y="17" width="9" height="17" fill="#5f0000" />
    <text x="45" y="19" fill="#ff87af" textLength="9" lengthAdjust="spacingAndGlyphs">-</text>
    <rect x="54" y="17" width="9" height="17" fill="#5f0000" />
    <rect x="63" y="17" width="45" height="17" fill="#5f0000" />
    <text x="63" y="19" fill="#0000ee" textLength="45" lengthAdjust="spacingAndGlyphs">const</text>
    <rect x="108" y="17" width="117" height="17" fill="#5f0000" />
    <text x="108" y="19" fill="#e5e5e5" textLength="117" lengthAdjust="spacingAndGlyphs"> oldLine10 = </text>
    <rect x="225" y="17" width="36" height="17" fill="#5f0000" />
    <text x="225" y="19" fill="#0000ee" textLength="36" lengthAdjust="spacingAndGlyphs">true</text>
    <rect x="261" y="17" width="9" height="17" fill="#5f0000" />
    <text x="261" y="19" fill="#e5e5e5" textLength="9" lengthAdjust="spacingAndGlyphs">;</text>
    <text x="711" y="19" fill="#333333" textLength="9" lengthAdjust="spacingAndGlyphs">│</text>
    <text x="0" y="36" fill="#333333" textLength="9" lengthAdjust="spacingAndGlyphs">│</text>
    <rect x="18" y="34" width="18" height="17" fill="#005f00" />
    <text x="18" y="36" fill="#afafaf" textLength="18" lengthAdjust="spacingAndGlyphs">10</text>
    <rect x="36" y="34" width="9" height="17" fill="#005f00" />
    <rect x="45" y="34" width="9" height="17" fill="#005f00" />
    <text x="45" y="36" fill="#d7ffd7" textLength="9" lengthAdjust="spacingAndGlyphs">+</text>
    <rect x="54" y="34" width="9" height="17" fill="#005f00" />
    <rect x="63" y="34" width="45" height="17" fill="#005f00" />
    <text x="63" y="36" fill="#0000ee" textLength="45" lengthAdjust="spacingAndGlyphs">const</text>
    <rect x="108" y="34" width="117" height="17" fill="#005f00" />
    <text x="108" y="36" fill="#e5e5e5" textLength="117" lengthAdjust="spacingAndGlyphs"> newLine10 = </text>
    <rect x="225" y="34" width="36" height="17" fill="#005f00" />
    <text x="225" y="36" fill="#0000ee" textLength="36" lengthAdjust="spacingAndGlyphs">true</text>
    <rect x="261" y="34" width="9" height="17" fill="#005f00" />
    <text x="261" y="36" fill="#e5e5e5" textLength="9" lengthAdjust="spacingAndGlyphs">;</text>
    <text x="711" y="36" fill="#333333" textLength="9" lengthAdjust="spacingAndGlyphs">│</text>
    <text x="0" y="53" fill="#333333" textLength="9" lengthAdjust="spacingAndGlyphs">│</text>
    <rect x="18" y="51" width="18" height="17" fill="#5f0000" />
    <text x="18" y="53" fill="#afafaf" textLength="18" lengthAdjust="spacingAndGlyphs">11</text>
    <rect x="36" y="51" width="9" height="17" fill="#5f0000" />
    <rect x="45" y="51" width="9" height="17" fill="#5f0000" />
    <text x="45" y="53" fill="#ff87af" textLength="9" lengthAdjust="spacingAndGlyphs">-</text>
    <rect x="54" y="51" width="9" height="17" fill="#5f0000" />
    <rect x="63" y="51" width="45" height="17" fill="#5f0000" />
    <text x="63" y="53" fill="#0000ee" textLength="45" lengthAdjust="spacingAndGlyphs">const</text>
    <rect x="108" y="51" width="117" height="17" fill="#5f0000" />
    <text x="108" y="53" fill="#e5e5e5" textLength="117" lengthAdjust="spacingAndGlyphs"> oldLine11 = </text>
    <rect x="225" y="51" width="36" height="17" fill="#5f0000" />
    <text x="225" y="53" fill="#0000ee" textLength="36" lengthAdjust="spacingAndGlyphs">true</text>
    <rect x="261" y="51" width="9" height="17" fill="#5f0000" />
    <text x="261" y="53" fill="#e5e5e5" textLength="9" lengthAdjust="spacingAndGlyphs">;</text>
    <text x="711" y="53" fill="#333333" textLength="9" lengthAdjust="spacingAndGlyphs">│</text>
    <text x="0" y="70" fill="#333333" textLength="9" lengthAdjust="spacingAndGlyphs">│</text>
    <rect x="18" y="68" width="18" height="17" fill="#005f00" />
    <text x="18" y="70" fill="#afafaf" textLength="18" lengthAdjust="spacingAndGlyphs">11</text>
    <rect x="36" y="68" width="9" height="17" fill="#005f00" />
    <rect x="45" y="68" width="9" height="17" fill="#005f00" />
    <text x="45" y="70" fill="#d7ffd7" textLength="9" lengthAdjust="spacingAndGlyphs">+</text>
    <rect x="54" y="68" width="9" height="17" fill="#005f00" />
    <rect x="63" y="68" width="45" height="17" fill="#005f00" />
    <text x="63" y="70" fill="#0000ee" textLength="45" lengthAdjust="spacingAndGlyphs">const</text>
    <rect x="108" y="68" width="117" height="17" fill="#005f00" />
    <text x="108" y="70" fill="#e5e5e5" textLength="117" lengthAdjust="spacingAndGlyphs"> newLine11 = </text>
    <rect x="225" y="68" width="36" height="17" fill="#005f00" />
    <text x="225" y="70" fill="#0000ee" textLength="36" lengthAdjust="spacingAndGlyphs">true</text>
    <rect x="261" y="68" width="9" height="17" fill="#005f00" />
    <text x="261" y="70" fill="#e5e5e5" textLength="9" lengthAdjust="spacingAndGlyphs">;</text>
    <text x="711" y="70" fill="#333333" textLength="9" lengthAdjust="spacingAndGlyphs">│</text>
    <text x="0" y="87" fill="#333333" textLength="9" lengthAdjust="spacingAndGlyphs">│</text>
    <rect x="18" y="85" width="18" height="17" fill="#5f0000" />
    <text x="18" y="87" fill="#afafaf" textLength="18" lengthAdjust="spacingAndGlyphs">12</text>
    <rect x="36" y="85" width="9" height="17" fill="#5f0000" />
    <rect x="45" y="85" width="9" height="17" fill="#5f0000" />
    <text x="45" y="87" fill="#ff87af" textLength="9" lengthAdjust="spacingAndGlyphs">-</text>
    <rect x="54" y="85" width="9" height="17" fill="#5f0000" />
    <rect x="63" y="85" width="45" height="17" fill="#5f0000" />
    <text x="63" y="87" fill="#0000ee" textLength="45" lengthAdjust="spacingAndGlyphs">const</text>
    <rect x="108" y="85" width="117" height="17" fill="#5f0000" />
    <text x="108" y="87" fill="#e5e5e5" textLength="117" lengthAdjust="spacingAndGlyphs"> oldLine12 = </text>
    <rect x="225" y="85" width="36" height="17" fill="#5f0000" />
    <text x="225" y="87" fill="#0000ee" textLength="36" lengthAdjust="spacingAndGlyphs">true</text>
    <rect x="261" y="85" width="9" height="17" fill="#5f0000" />
    <text x="261" y="87" fill="#e5e5e5" textLength="9" lengthAdjust="spacingAndGlyphs">;</text>
    <text x="711" y="87" fill="#333333" textLength="9" lengthAdjust="spacingAndGlyphs">│</text>
    <text x="0" y="104" fill="#333333" textLength="9" lengthAdjust="spacingAndGlyphs">│</text>
    <rect x="18" y="102" width="18" height="17" fill="#005f00" />
    <text x="18" y="104" fill="#afafaf" textLength="18" lengthAdjust="spacingAndGlyphs">12</text>
    <rect x="36" y="102" width="9" height="17" fill="#005f00" />
    <rect x="45" y="102" width="9" height="17" fill="#005f00" />
    <text x="45" y="104" fill="#d7ffd7" textLength="9" lengthAdjust="spacingAndGlyphs">+</text>
    <rect x="54" y="102" width="9" height="17" fill="#005f00" />
    <rect x="63" y="102" width="45" height="17" fill="#005f00" />
    <text x="63" y="104" fill="#0000ee" textLength="45" lengthAdjust="spacingAndGlyphs">const</text>
    <rect x="108" y="102" width="117" height="17" fill="#005f00" />
    <text x="108" y="104" fill="#e5e5e5" textLength="117" lengthAdjust="spacingAndGlyphs"> newLine12 = </text>
    <rect x="225" y="102" width="36" height="17" fill="#005f00" />
    <text x="225" y="104" fill="#0000ee" textLength="36" lengthAdjust="spacingAndGlyphs">true</text>
    <rect x="261" y="102" width="9" height="17" fill="#005f00" />
    <text x="261" y="104" fill="#e5e5e5" textLength="9" lengthAdjust="spacingAndGlyphs">;</text>
    <text x="711" y="104" fill="#333333" textLength="9" lengthAdjust="spacingAndGlyphs">│</text>
    <text x="0" y="121" fill="#333333" textLength="9" lengthAdjust="spacingAndGlyphs">│</text>
    <rect x="18" y="119" width="18" height="17" fill="#5f0000" />
    <text x="18" y="121" fill="#afafaf" textLength="18" lengthAdjust="spacingAndGlyphs">13</text>
    <rect x="36" y="119" width="9" height="17" fill="#5f0000" />
    <rect x="45" y="119" width="9" height="17" fill="#5f0000" />
    <text x="45" y="121" fill="#ff87af" textLength="9" lengthAdjust="spacingAndGlyphs">-</text>
    <rect x="54" y="119" width="9" height="17" fill="#5f0000" />
    <rect x="63" y="119" width="45" height="17" fill="#5f0000" />
    <text x="63" y="121" fill="#0000ee" textLength="45" lengthAdjust="spacingAndGlyphs">const</text>
    <rect x="108" y="119" width="117" height="17" fill="#5f0000" />
    <text x="108" y="121" fill="#e5e5e5" textLength="117" lengthAdjust="spacingAndGlyphs"> oldLine13 = </text>
    <rect x="225" y="119" width="36" height="17" fill="#5f0000" />
    <text x="225" y="121" fill="#0000ee" textLength="36" lengthAdjust="spacingAndGlyphs">true</text>
    <rect x="261" y="119" width="9" height="17" fill="#5f0000" />
    <text x="261" y="121" fill="#e5e5e5" textLength="9" lengthAdjust="spacingAndGlyphs">;</text>
    <text x="711" y="121" fill="#333333" textLength="9" lengthAdjust="spacingAndGlyphs">│</text>
    <text x="0" y="138" fill="#333333" textLength="9" lengthAdjust="spacingAndGlyphs">│</text>
    <rect x="18" y="136" width="18" height="17" fill="#005f00" />
    <text x="18" y="138" fill="#afafaf" textLength="18" lengthAdjust="spacingAndGlyphs">13</text>
    <rect x="36" y="136" width="9" height="17" fill="#005f00" />
    <rect x="45" y="136" width="9" height="17" fill="#005f00" />
    <text x="45" y="138" fill="#d7ffd7" textLength="9" lengthAdjust="spacingAndGlyphs">+</text>
    <rect x="54" y="136" width="9" height="17" fill="#005f00" />
    <rect x="63" y="136" width="45" height="17" fill="#005f00" />
    <text x="63" y="138" fill="#0000ee" textLength="45" lengthAdjust="spacingAndGlyphs">const</text>
    <rect x="108" y="136" width="117" height="17" fill="#005f00" />
    <text x="108" y="138" fill="#e5e5e5" textLength="117" lengthAdjust="spacingAndGlyphs"> newLine13 = </text>
    <rect x="225" y="136" width="36" height="17" fill="#005f00" />
    <text x="225" y="138" fill="#0000ee" textLength="36" lengthAdjust="spacingAndGlyphs">true</text>
    <rect x="261" y="136" width="9" height="17" fill="#005f00" />
    <text x="261" y="138" fill="#e5e5e5" textLength="9" lengthAdjust="spacingAndGlyphs">;</text>
    <text x="711" y="138" fill="#333333" textLength="9" lengthAdjust="spacingAndGlyphs">│</text>
    <text x="0" y="155" fill="#333333" textLength="9" lengthAdjust="spacingAndGlyphs">│</text>
    <rect x="18" y="153" width="18" height="17" fill="#5f0000" />
    <text x="18" y="155" fill="#afafaf" textLength="18" lengthAdjust="spacingAndGlyphs">14</text>
    <rect x="36" y="153" width="9" height="17" fill="#5f0000" />
    <rect x="45" y="153" width="9" height="17" fill="#5f0000" />
    <text x="45" y="155" fill="#ff87af" textLength="9" lengthAdjust="spacingAndGlyphs">-</text>
    <rect x="54" y="153" width="9" height="17" fill="#5f0000" />
    <rect x="63" y="153" width="45" height="17" fill="#5f0000" />
    <text x="63" y="155" fill="#0000ee" textLength="45" lengthAdjust="spacingAndGlyphs">const</text>
    <rect x="108" y="153" width="117" height="17" fill="#5f0000" />
    <text x="108" y="155" fill="#e5e5e5" textLength="117" lengthAdjust="spacingAndGlyphs"> oldLine14 = </text>
    <rect x="225" y="153" width="36" height="17" fill="#5f0000" />
    <text x="225" y="155" fill="#0000ee" textLength="36" lengthAdjust="spacingAndGlyphs">true</text>
    <rect x="261" y="153" width="9" height="17" fill="#5f0000" />
    <text x="261" y="155" fill="#e5e5e5" textLength="9" lengthAdjust="spacingAndGlyphs">;</text>
    <text x="711" y="155" fill="#333333" textLength="9" lengthAdjust="spacingAndGlyphs">│</text>
    <text x="0" y="172" fill="#333333" textLength="9" lengthAdjust="spacingAndGlyphs">│</text>
    <rect x="18" y="170" width="18" height="17" fill="#005f00" />
    <text x="18" y="172" fill="#afafaf" textLength="18" lengthAdjust="spacingAndGlyphs">14</text>
    <rect x="36" y="170" width="9" height="17" fill="#005f00" />
    <rect x="45" y="170" width="9" height="17" fill="#005f00" />
    <text x="45" y="172" fill="#d7ffd7" textLength="9" lengthAdjust="spacingAndGlyphs">+</text>
    <rect x="54" y="170" width="9" height="17" fill="#005f00" />
    <rect x="63" y="170" width="45" height="17" fill="#005f00" />
    <text x="63" y="172" fill="#0000ee" textLength="45" lengthAdjust="spacingAndGlyphs">const</text>
    <rect x="108" y="170" width="117" height="17" fill="#005f00" />
    <text x="108" y="172" fill="#e5e5e5" textLength="117" lengthAdjust="spacingAndGlyphs"> newLine14 = </text>
    <rect x="225" y="170" width="36" height="17" fill="#005f00" />
    <text x="225" y="172" fill="#0000ee" textLength="36" lengthAdjust="spacingAndGlyphs">true</text>
    <rect x="261" y="170" width="9" height="17" fill="#005f00" />
    <text x="261" y="172" fill="#e5e5e5" textLength="9" lengthAdjust="spacingAndGlyphs">;</text>
    <text x="711" y="172" fill="#333333" textLength="9" lengthAdjust="spacingAndGlyphs">│</text>
    <text x="0" y="189" fill="#333333" textLength="9" lengthAdjust="spacingAndGlyphs">│</text>
    <rect x="18" y="187" width="18" height="17" fill="#5f0000" />
    <text x="18" y="189" fill="#afafaf" textLength="18" lengthAdjust="spacingAndGlyphs">15</text>
    <rect x="36" y="187" width="9" height="17" fill="#5f0000" />
    <rect x="45" y="187" width="9" height="17" fill="#5f0000" />
    <text x="45" y="189" fill="#ff87af" textLength="9" lengthAdjust="spacingAndGlyphs">-</text>
    <rect x="54" y="187" width="9" height="17" fill="#5f0000" />
    <rect x="63" y="187" width="45" height="17" fill="#5f0000" />
    <text x="63" y="189" fill="#0000ee" textLength="45" lengthAdjust="spacingAndGlyphs">const</text>
    <rect x="108" y="187" width="117" height="17" fill="#5f0000" />
    <text x="108" y="189" fill="#e5e5e5" textLength="117" lengthAdjust="spacingAndGlyphs"> oldLine15 = </text>
    <rect x="225" y="187" width="36" height="17" fill="#5f0000" />
    <text x="225" y="189" fill="#0000ee" textLength="36" lengthAdjust="spacingAndGlyphs">true</text>
    <rect x="261" y="187" width="9" height="17" fill="#5f0000" />
    <text x="261" y="189" fill="#e5e5e5" textLength="9" lengthAdjust="spacingAndGlyphs">;</text>
    <text x="711" y="189" fill="#333333" textLength="9" lengthAdjust="spacingAndGlyphs">│</text>
    <text x="0" y="206" fill="#333333" textLength="9" lengthAdjust="spacingAndGlyphs">│</text>
    <rect x="18" y="204" width="18" height="17" fill="#005f00" />
    <text x="18" y="206" fill="#afafaf" textLength="18" lengthAdjust="spacingAndGlyphs">15</text>
    <rect x="36" y="204" width="9" height="17" fill="#005f00" />
    <rect x="45" y="204" width="9" height="17" fill="#005f00" />
    <text x="45" y="206" fill="#d7ffd7" textLength="9" lengthAdjust="spacingAndGlyphs">+</text>
    <rect x="54" y="204" width="9" height="17" fill="#005f00" />
    <rect x="63" y="204" width="45" height="17" fill="#005f00" />
    <text x="63" y="206" fill="#0000ee" textLength="45" lengthAdjust="spacingAndGlyphs">const</text>
    <rect x="108" y="204" width="117" height="17" fill="#005f00" />
    <text x="108" y="206" fill="#e5e5e5" textLength="117" lengthAdjust="spacingAndGlyphs"> newLine15 = </text>
    <rect x="225" y="204" width="36" height="17" fill="#005f00" />
    <text x="225" y="206" fill="#0000ee" textLength="36" lengthAdjust="spacingAndGlyphs">true</text>
    <rect x="261" y="204" width="9" height="17" fill="#005f00" />
    <text x="261" y="206" fill="#e5e5e5" textLength="9" lengthAdjust="spacingAndGlyphs">;</text>
    <text x="711" y="206" fill="#333333" textLength="9" lengthAdjust="spacingAndGlyphs">│</text>
    <text x="0" y="223" fill="#333333" textLength="9" lengthAdjust="spacingAndGlyphs">│</text>
    <rect x="18" y="221" width="18" height="17" fill="#5f0000" />
    <text x="18" y="223" fill="#afafaf" textLength="18" lengthAdjust="spacingAndGlyphs">16</text>
    <rect x="36" y="221" width="9" height="17" fill="#5f0000" />
    <rect x="45" y="221" width="9" height="17" fill="#5f0000" />
    <text x="45" y="223" fill="#ff87af" textLength="9" lengthAdjust="spacingAndGlyphs">-</text>
    <rect x="54" y="221" width="9" height="17" fill="#5f0000" />
    <rect x="63" y="221" width="45" height="17" fill="#5f0000" />
    <text x="63" y="223" fill="#0000ee" textLength="45" lengthAdjust="spacingAndGlyphs">const</text>
    <rect x="108" y="221" width="117" height="17" fill="#5f0000" />
    <text x="108" y="223" fill="#e5e5e5" textLength="117" lengthAdjust="spacingAndGlyphs"> oldLine16 = </text>
    <rect x="225" y="221" width="36" height="17" fill="#5f0000" />
    <text x="225" y="223" fill="#0000ee" textLength="36" lengthAdjust="spacingAndGlyphs">true</text>
    <rect x="261" y="221" width="9" height="17" fill="#5f0000" />
    <text x="261" y="223" fill="#e5e5e5" textLength="9" lengthAdjust="spacingAndGlyphs">;</text>
    <text x="711" y="223" fill="#333333" textLength="9" lengthAdjust="spacingAndGlyphs">│</text>
    <text x="0" y="240" fill="#333333" textLength="9" lengthAdjust="spacingAndGlyphs">│</text>
    <rect x="18" y="238" width="18" height="17" fill="#005f00" />
    <text x="18" y="240" fill="#afafaf" textLength="18" lengthAdjust="spacingAndGlyphs">16</text>
    <rect x="36" y="238" width="9" height="17" fill="#005f00" />
    <rect x="45" y="238" width="9" height="17" fill="#005f00" />
    <text x="45" y="240" fill="#d7ffd7" textLength="9" lengthAdjust="spacingAndGlyphs">+</text>
    <rect x="54" y="238" width="9" height="17" fill="#005f00" />
    <rect x="63" y="238" width="45" height="17" fill="#005f00" />
    <text x="63" y="240" fill="#0000ee" textLength="45" lengthAdjust="spacingAndGlyphs">const</text>
    <rect x="108" y="238" width="117" height="17" fill="#005f00" />
    <text x="108" y="240" fill="#e5e5e5" textLength="117" lengthAdjust="spacingAndGlyphs"> newLine16 = </text>
    <rect x="225" y="238" width="36" height="17" fill="#005f00" />
    <text x="225" y="240" fill="#0000ee" textLength="36" lengthAdjust="spacingAndGlyphs">true</text>
    <rect x="261" y="238" width="9" height="17" fill="#005f00" />
    <text x="261" y="240" fill="#e5e5e5" textLength="9" lengthAdjust="spacingAndGlyphs">;</text>
    <text x="711" y="240" fill="#333333" textLength="9" lengthAdjust="spacingAndGlyphs">│</text>
    <text x="0" y="257" fill="#333333" textLength="9" lengthAdjust="spacingAndGlyphs">│</text>
    <rect x="18" y="255" width="18" height="17" fill="#5f0000" />
    <text x="18" y="257" fill="#afafaf" textLength="18" lengthAdjust="spacingAndGlyphs">17</text>
    <rect x="36" y="255" width="9" height="17" fill="#5f0000" />
    <rect x="45" y="255" width="9" height="17" fill="#5f0000" />
    <text x="45" y="257" fill="#ff87af" textLength="9" lengthAdjust="spacingAndGlyphs">-</text>
    <rect x="54" y="255" width="9" height="17" fill="#5f0000" />
    <rect x="63" y="255" width="45" height="17" fill="#5f0000" />
    <text x="63" y="257" fill="#0000ee" textLength="45" lengthAdjust="spacingAndGlyphs">const</text>
    <rect x="108" y="255" width="117" height="17" fill="#5f0000" />
    <text x="108" y="257" fill="#e5e5e5" textLength="117" lengthAdjust="spacingAndGlyphs"> oldLine17 = </text>
    <rect x="225" y="255" width="36" height="17" fill="#5f0000" />
    <text x="225" y="257" fill="#0000ee" textLength="36" lengthAdjust="spacingAndGlyphs">true</text>
    <rect x="261" y="255" width="9" height="17" fill="#5f0000" />
    <text x="261" y="257" fill="#e5e5e5" textLength="9" lengthAdjust="spacingAndGlyphs">;</text>
    <text x="711" y="257" fill="#333333" textLength="9" lengthAdjust="spacingAndGlyphs">│</text>
    <text x="0" y="274" fill="#333333" textLength="9" lengthAdjust="spacingAndGlyphs">│</text>
    <rect x="18" y="272" width="18" height="17" fill="#005f00" />
    <text x="18" y="274" fill="#afafaf" textLength="18" lengthAdjust="spacingAndGlyphs">17</text>
    <rect x="36" y="272" width="9" height="17" fill="#005f00" />
    <rect x="45" y="272" width="9" height="17" fill="#005f00" />
    <text x="45" y="274" fill="#d7ffd7" textLength="9" lengthAdjust="spacingAndGlyphs">+</text>
    <rect x="54" y="272" width="9" height="17" fill="#005f00" />
    <rect x="63" y="272" width="45" height="17" fill="#005f00" />
    <text x="63" y="274" fill="#0000ee" textLength="45" lengthAdjust="spacingAndGlyphs">const</text>
    <rect x="108" y="272" width="117" height="17" fill="#005f00" />
    <text x="108" y="274" fill="#e5e5e5" textLength="117" lengthAdjust="spacingAndGlyphs"> newLine17 = </text>
    <rect x="225" y="272" width="36" height="17" fill="#005f00" />
    <text x="225" y="274" fill="#0000ee" textLength="36" lengthAdjust="spacingAndGlyphs">true</text>
    <rect x="261" y="272" width="9" height="17" fill="#005f00" />
    <text x="261" y="274" fill="#e5e5e5" textLength="9" lengthAdjust="spacingAndGlyphs">;</text>
    <text x="711" y="274" fill="#333333" textLength="9" lengthAdjust="spacingAndGlyphs">│</text>
    <text x="0" y="291" fill="#333333" textLength="9" lengthAdjust="spacingAndGlyphs">│</text>
    <rect x="18" y="289" width="18" height="17" fill="#5f0000" />
    <text x="18" y="291" fill="#afafaf" textLength="18" lengthAdjust="spacingAndGlyphs">18</text>
    <rect x="36" y="289" width="9" height="17" fill="#5f0000" />
    <rect x="45" y="289" width="9" height="17" fill="#5f0000" />
    <text x="45" y="291" fill="#ff87af" textLength="9" lengthAdjust="spacingAndGlyphs">-</text>
    <rect x="54" y="289" width="9" height="17" fill="#5f0000" />
    <rect x="63" y="289" width="45" height="17" fill="#5f0000" />
    <text x="63" y="291" fill="#0000ee" textLength="45" lengthAdjust="spacingAndGlyphs">const</text>
    <rect x="108" y="289" width="117" height="17" fill="#5f0000" />
    <text x="108" y="291" fill="#e5e5e5" textLength="117" lengthAdjust="spacingAndGlyphs"> oldLine18 = </text>
    <rect x="225" y="289" width="36" height="17" fill="#5f0000" />
    <text x="225" y="291" fill="#0000ee" textLength="36" lengthAdjust="spacingAndGlyphs">true</text>
    <rect x="261" y="289" width="9" height="17" fill="#5f0000" />
    <text x="261" y="291" fill="#e5e5e5" textLength="9" lengthAdjust="spacingAndGlyphs">;</text>
    <text x="711" y="291" fill="#333333" textLength="9" lengthAdjust="spacingAndGlyphs">│</text>
    <text x="0" y="308" fill="#333333" textLength="9" lengthAdjust="spacingAndGlyphs">│</text>
    <rect x="18" y="306" width="18" height="17" fill="#005f00" />
    <text x="18" y="308" fill="#afafaf" textLength="18" lengthAdjust="spacingAndGlyphs">18</text>
    <rect x="36" y="306" width="9" height="17" fill="#005f00" />
    <rect x="45" y="306" width="9" height="17" fill="#005f00" />
    <text x="45" y="308" fill="#d7ffd7" textLength="9" lengthAdjust="spacingAndGlyphs">+</text>
    <rect x="54" y="306" width="9" height="17" fill="#005f00" />
    <rect x="63" y="306" width="45" height="17" fill="#005f00" />
    <text x="63" y="308" fill="#0000ee" textLength="45" lengthAdjust="spacingAndGlyphs">const</text>
    <rect x="108" y="306" width="117" height="17" fill="#005f00" />
    <text x="108" y="308" fill="#e5e5e5" textLength="117" lengthAdjust="spacingAndGlyphs"> newLine18 = </text>
    <rect x="225" y="306" width="36" height="17" fill="#005f00" />
    <text x="225" y="308" fill="#0000ee" textLength="36" lengthAdjust="spacingAndGlyphs">true</text>
    <rect x="261" y="306" width="9" height="17" fill="#005f00" />
    <text x="261" y="308" fill="#e5e5e5" textLength="9" lengthAdjust="spacingAndGlyphs">;</text>
    <text x="711" y="308" fill="#333333" textLength="9" lengthAdjust="spacingAndGlyphs">│</text>
    <text x="0" y="325" fill="#333333" textLength="9" lengthAdjust="spacingAndGlyphs">│</text>
    <rect x="18" y="323" width="18" height="17" fill="#5f0000" />
    <text x="18" y="325" fill="#afafaf" textLength="18" lengthAdjust="spacingAndGlyphs">19</text>
    <rect x="36" y="323" width="9" height="17" fill="#5f0000" />
    <rect x="45" y="323" width="9" height="17" fill="#5f0000" />
    <text x="45" y="325" fill="#ff87af" textLength="9" lengthAdjust="spacingAndGlyphs">-</text>
    <rect x="54" y="323" width="9" height="17" fill="#5f0000" />
    <rect x="63" y="323" width="45" height="17" fill="#5f0000" />
    <text x="63" y="325" fill="#0000ee" textLength="45" lengthAdjust="spacingAndGlyphs">const</text>
    <rect x="108" y="323" width="117" height="17" fill="#5f0000" />
    <text x="108" y="325" fill="#e5e5e5" textLength="117" lengthAdjust="spacingAndGlyphs"> oldLine19 = </text>
    <rect x="225" y="323" width="36" height="17" fill="#5f0000" />
    <text x="225" y="325" fill="#0000ee" textLength="36" lengthAdjust="spacingAndGlyphs">true</text>
    <rect x="261" y="323" width="9" height="17" fill="#5f0000" />
    <text x="261" y="325" fill="#e5e5e5" textLength="9" lengthAdjust="spacingAndGlyphs">;</text>
    <text x="711" y="325" fill="#333333" textLength="9" lengthAdjust="spacingAndGlyphs">│</text>
    <text x="0" y="342" fill="#333333" textLength="9" lengthAdjust="spacingAndGlyphs">│</text>
    <rect x="18" y="340" width="18" height="17" fill="#005f00" />
    <text x="18" y="342" fill="#afafaf" textLength="18" lengthAdjust="spacingAndGlyphs">19</text>
    <rect x="36" y="340" width="9" height="17" fill="#005f00" />
    <rect x="45" y="340" width="9" height="17" fill="#005f00" />
    <text x="45" y="342" fill="#d7ffd7" textLength="9" lengthAdjust="spacingAndGlyphs">+</text>
    <rect x="54" y="340" width="9" height="17" fill="#005f00" />
    <rect x="63" y="340" width="45" height="17" fill="#005f00" />
    <text x="63" y="342" fill="#0000ee" textLength="45" lengthAdjust="spacingAndGlyphs">const</text>
    <rect x="108" y="340" width="117" height="17" fill="#005f00" />
    <text x="108" y="342" fill="#e5e5e5" textLength="117" lengthAdjust="spacingAndGlyphs"> newLine19 = </text>
    <rect x="225" y="340" width="36" height="17" fill="#005f00" />
    <text x="225" y="342" fill="#0000ee" textLength="36" lengthAdjust="spacingAndGlyphs">true</text>
    <rect x="261" y="340" width="9" height="17" fill="#005f00" />
    <text x="261" y="342" fill="#e5e5e5" textLength="9" lengthAdjust="spacingAndGlyphs">;</text>
    <text x="711" y="342" fill="#333333" textLength="9" lengthAdjust="spacingAndGlyphs">│</text>
    <text x="0" y="359" fill="#333333" textLength="9" lengthAdjust="spacingAndGlyphs">│</text>
    <rect x="18" y="357" width="18" height="17" fill="#5f0000" />
    <text x="18" y="359" fill="#afafaf" textLength="18" lengthAdjust="spacingAndGlyphs">20</text>
    <rect x="36" y="357" width="9" height="17" fill="#5f0000" />
    <rect x="45" y="357" width="9" height="17" fill="#5f0000" />
    <text x="45" y="359" fill="#ff87af" textLength="9" lengthAdjust="spacingAndGlyphs">-</text>
    <rect x="54" y="357" width="9" height="17" fill="#5f0000" />
    <rect x="63" y="357" width="45" height="17" fill="#5f0000" />
    <text x="63" y="359" fill="#0000ee" textLength="45" lengthAdjust="spacingAndGlyphs">const</text>
    <rect x="108" y="357" width="117" height="17" fill="#5f0000" />
    <text x="108" y="359" fill="#e5e5e5" textLength="117" lengthAdjust="spacingAndGlyphs"> oldLine20 = </text>
    <rect x="225" y="357" width="36" height="17" fill="#5f0000" />
    <text x="225" y="359" fill="#0000ee" textLength="36" lengthAdjust="spacingAndGlyphs">true</text>
    <rect x="261" y="357" width="9" height="17" fill="#5f0000" />
    <text x="261" y="359" fill="#e5e5e5" textLength="9" lengthAdjust="spacingAndGlyphs">;</text>
    <text x="711" y="359" fill="#333333" textLength="9" lengthAdjust="spacingAndGlyphs">│</text>
    <text x="0" y="376" fill="#333333" textLength="9" lengthAdjust="spacingAndGlyphs">│</text>
    <rect x="18" y="374" width="18" height="17" fill="#005f00" />
    <text x="18" y="376" fill="#afafaf" textLength="18" lengthAdjust="spacingAndGlyphs">20</text>
    <rect x="36" y="374" width="9" height="17" fill="#005f00" />
    <rect x="45" y="374" width="9" height="17" fill="#005f00" />
    <text x="45" y="376" fill="#d7ffd7" textLength="9" lengthAdjust="spacingAndGlyphs">+</text>
    <rect x="54" y="374" width="9" height="17" fill="#005f00" />
    <rect x="63" y="374" width="45" height="17" fill="#005f00" />
    <text x="63" y="376" fill="#0000ee" textLength="45" lengthAdjust="spacingAndGlyphs">const</text>
    <rect x="108" y="374" width="117" height="17" fill="#005f00" />
    <text x="108" y="376" fill="#e5e5e5" textLength="117" lengthAdjust="spacingAndGlyphs"> newLine20 = </text>
    <rect x="225" y="374" width="36" height="17" fill="#005f00" />
    <text x="225" y="376" fill="#0000ee" textLength="36" lengthAdjust="spacingAndGlyphs">true</text>
    <rect x="261" y="374" width="9" height="17" fill="#005f00" />
    <text x="261" y="376" fill="#e5e5e5" textLength="9" lengthAdjust="spacingAndGlyphs">;</text>
    <text x="711" y="376" fill="#333333" textLength="9" lengthAdjust="spacingAndGlyphs">│</text>
    <text x="0" y="393" fill="#333333" textLength="720" lengthAdjust="spacingAndGlyphs">╰──────────────────────────────────────────────────────────────────────────────╯</text>
    <text x="0" y="512" fill="#ffffaf" textLength="18" lengthAdjust="spacingAndGlyphs">⚠ </text>
    <text x="27" y="512" fill="#ffffaf" textLength="162" lengthAdjust="spacingAndGlyphs" font-weight="bold">[SECURITY WARNING]</text>
    <text x="189" y="512" fill="#ffffaf" textLength="702" lengthAdjust="spacingAndGlyphs"> This diff is too long to display. You must expand the view (Ctrl+O) to review</text>
    <text x="27" y="529" fill="#ffffaf" textLength="387" lengthAdjust="spacingAndGlyphs">the full content before allowing execution.</text>
    <text x="0" y="563" fill="#ffffff" textLength="162" lengthAdjust="spacingAndGlyphs">Apply this change?</text>
    <text x="18" y="597" fill="#afafaf" textLength="18" lengthAdjust="spacingAndGlyphs">1.</text>
    <text x="45" y="597" fill="#afafaf" textLength="90" lengthAdjust="spacingAndGlyphs">Allow once</text>
    <text x="18" y="614" fill="#afafaf" textLength="18" lengthAdjust="spacingAndGlyphs">2.</text>
    <text x="45" y="614" fill="#afafaf" textLength="198" lengthAdjust="spacingAndGlyphs">Allow for this session</text>
    <rect x="0" y="629" width="9" height="17" fill="#001a00" />
    <text x="0" y="631" fill="#00cd00" textLength="9" lengthAdjust="spacingAndGlyphs">●</text>
    <rect x="9" y="629" width="9" height="17" fill="#001a00" />
    <rect x="18" y="629" width="18" height="17" fill="#001a00" />
    <text x="18" y="631" fill="#00cd00" textLength="18" lengthAdjust="spacingAndGlyphs">3.</text>
    <rect x="36" y="629" width="9" height="17" fill="#001a00" />
    <rect x="45" y="629" width="243" height="17" fill="#001a00" />
    <text x="45" y="631" fill="#00cd00" textLength="243" lengthAdjust="spacingAndGlyphs">Modify with external editor</text>
    <text x="18" y="648" fill="#ffffff" textLength="18" lengthAdjust="spacingAndGlyphs">4.</text>
    <text x="45" y="648" fill="#ffffff" textLength="225" lengthAdjust="spacingAndGlyphs">No, suggest changes (esc)</text>
  </g>
</svg>